<svg xmlns="http://www.w3.org/2000/svg" xmlns:xlink="http://www.w3.org/1999/xlink" width="1024" zoomAndPan="magnify" viewBox="0 0 768 767.999994" height="1024" preserveAspectRatio="xMidYMid meet" version="1.0"><defs><clipPath id="f096433ed1"><path d="M 230.398438 270 L 537.898438 270 L 537.898438 499.660156 L 230.398438 499.660156 Z M 230.398438 270 " clip-rule="nonzero"/></clipPath></defs><path fill="#ffffff" d="M 536.546875 498.230469 L 258.257812 498.230469 L 262.503906 475.097656 L 232.984375 475.097656 C 282.058594 412.214844 296.082031 292.730469 296.082031 292.730469 L 296.695312 287.871094 L 520.3125 287.871094 Z M 536.546875 498.230469 " fill-opacity="1" fill-rule="nonzero"/><path fill="#4f695a" d="M 528.492188 286.765625 L 521.109375 319.3125 C 520.25 322.941406 517.234375 325.527344 513.792969 325.527344 L 308.382812 325.527344 C 303.707031 325.527344 300.140625 320.972656 300.941406 315.988281 L 306.105469 283.441406 C 306.722656 279.503906 309.859375 276.671875 313.546875 276.671875 L 521.171875 276.671875 C 526.03125 276.671875 529.660156 281.65625 528.492188 286.765625 Z M 528.492188 286.765625 " fill-opacity="1" fill-rule="nonzero"/><g clip-path="url(#f096433ed1)"><path fill="#000000" d="M 439.5625 406.800781 L 465.453125 406.800781 L 465.453125 404.28125 L 440.359375 404.28125 L 451.371094 370.625 L 478.429688 370.625 L 478.429688 368.101562 L 452.167969 368.101562 L 460.472656 342.628906 L 458.074219 341.832031 L 449.464844 368.101562 L 411.085938 368.101562 L 419.390625 342.628906 L 416.992188 341.832031 L 408.382812 368.101562 L 367.976562 368.101562 L 376.277344 342.628906 L 373.878906 341.832031 L 365.269531 368.101562 L 329.539062 368.101562 L 337.839844 342.628906 L 335.441406 341.832031 L 326.832031 368.101562 L 301.492188 368.101562 L 301.492188 370.625 L 325.972656 370.625 L 314.960938 404.28125 L 288.640625 404.28125 L 288.640625 406.800781 L 314.285156 406.800781 L 303.460938 439.964844 L 274.371094 439.964844 L 274.371094 442.488281 L 302.601562 442.488281 L 296.511719 461.191406 L 298.910156 461.992188 L 305.308594 442.550781 L 341.039062 442.550781 L 334.949219 461.253906 L 337.347656 462.054688 L 343.683594 442.609375 L 384.148438 442.609375 L 378.0625 461.316406 L 380.460938 462.113281 L 386.792969 442.671875 L 425.171875 442.671875 L 419.082031 461.375 L 421.480469 462.175781 L 427.875 442.734375 L 451.183594 442.734375 L 451.183594 440.210938 L 428.675781 440.210938 Z M 410.347656 370.5625 L 448.726562 370.5625 L 437.714844 404.21875 L 399.339844 404.21875 Z M 367.238281 370.5625 L 407.644531 370.5625 L 396.632812 404.21875 L 356.230469 404.21875 Z M 328.800781 370.5625 L 364.53125 370.5625 L 353.523438 404.21875 L 317.792969 404.21875 Z M 341.898438 439.964844 L 306.167969 439.964844 L 316.992188 406.800781 L 352.722656 406.800781 Z M 384.949219 439.964844 L 344.542969 439.964844 L 355.367188 406.800781 L 395.835938 406.800781 Z M 426.03125 439.964844 L 387.65625 439.964844 L 398.480469 406.800781 L 436.855469 406.800781 Z M 521.601562 287.933594 L 521.847656 286.578125 L 505.488281 286.578125 C 503.519531 278.582031 497.800781 272.675781 490.359375 271.074219 C 479.96875 268.796875 469.449219 275.628906 465.882812 286.578125 L 454.261719 286.578125 C 452.230469 278.703125 446.511719 272.796875 439.132812 271.199219 C 428.800781 268.921875 418.28125 275.6875 414.714844 286.578125 L 402.785156 286.578125 C 400.753906 278.765625 395.097656 272.980469 387.71875 271.382812 C 377.386719 269.105469 366.992188 275.8125 363.363281 286.640625 L 351.800781 286.640625 C 349.710938 278.828125 344.050781 273.105469 336.734375 271.503906 C 326.464844 269.230469 316.070312 275.933594 312.441406 286.640625 L 295.589844 286.640625 L 294.789062 292.671875 C 294.667969 293.839844 280.277344 412.402344 232 474.296875 L 230.398438 476.328125 L 261.027344 476.328125 L 256.785156 499.523438 L 537.898438 499.523438 Z M 489.808594 273.535156 C 496.078125 274.949219 501 279.871094 502.84375 286.578125 L 468.527344 286.578125 C 471.972656 277.351562 480.949219 271.628906 489.808594 273.535156 Z M 438.578125 273.71875 C 444.851562 275.074219 449.710938 279.996094 451.617188 286.640625 L 417.421875 286.640625 C 420.867188 277.410156 429.78125 271.75 438.578125 273.71875 Z M 387.164062 273.84375 C 393.375 275.195312 398.234375 280.058594 400.140625 286.640625 L 366.007812 286.640625 C 369.511719 277.535156 378.429688 271.9375 387.164062 273.84375 Z M 336.179688 273.964844 C 342.328125 275.320312 347.1875 280.117188 349.15625 286.578125 L 315.148438 286.578125 C 318.652344 277.597656 327.507812 272.058594 336.179688 273.964844 Z M 297.3125 292.917969 L 297.804688 289.164062 L 311.703125 289.164062 C 311.703125 289.226562 311.640625 289.347656 311.640625 289.410156 C 310.351562 295.378906 311.210938 301.40625 314.039062 306.453125 C 316.929688 311.558594 321.480469 315.003906 326.894531 316.171875 L 327.445312 313.710938 C 322.773438 312.667969 318.777344 309.652344 316.253906 305.160156 C 313.734375 300.667969 312.933594 295.253906 314.101562 289.902344 C 314.164062 289.59375 314.222656 289.347656 314.285156 289.101562 L 362.625 289.101562 C 362.625 289.164062 362.625 289.164062 362.5625 289.226562 C 361.273438 295.191406 362.132812 301.222656 364.960938 306.269531 C 367.851562 311.375 372.402344 314.820312 377.816406 316.050781 L 378.367188 313.589844 C 373.632812 312.542969 369.699219 309.527344 367.175781 305.097656 C 364.65625 300.609375 363.855469 295.191406 365.023438 289.839844 C 365.085938 289.59375 365.148438 289.410156 365.207031 289.164062 L 413.976562 289.164062 C 411.273438 301.46875 418.160156 313.527344 429.289062 315.925781 L 429.84375 313.464844 C 420.066406 311.3125 414.101562 300.667969 416.5 289.71875 C 416.558594 289.53125 416.621094 289.347656 416.621094 289.164062 L 465.144531 289.164062 C 463.914062 295.070312 464.777344 301.039062 467.605469 306.082031 C 470.496094 311.191406 475.046875 314.636719 480.457031 315.804688 L 481.011719 313.34375 C 476.277344 312.296875 472.339844 309.28125 469.820312 304.792969 C 467.296875 300.300781 466.5 294.886719 467.667969 289.53125 C 467.667969 289.410156 467.726562 289.285156 467.789062 289.164062 L 518.835938 289.164062 C 516.804688 299.4375 512.683594 314.636719 507.582031 331.984375 L 290.671875 331.984375 C 295.40625 309.097656 297.3125 293.347656 297.3125 292.917969 Z M 235.566406 473.804688 C 265.148438 434.613281 281.753906 374.5625 290.117188 334.507812 L 506.78125 334.507812 C 490.300781 389.757812 464.160156 464.945312 461.085938 473.804688 Z M 480.828125 496.9375 L 259.796875 496.9375 L 263.546875 476.328125 L 462.871094 476.328125 L 463.175781 475.464844 C 463.609375 474.296875 495.34375 383.546875 512.253906 324.726562 Z M 483.410156 496.9375 L 518.28125 306.207031 L 510.101562 496.9375 Z M 520.679688 309.160156 L 535.132812 496.9375 L 512.683594 496.9375 Z M 520.679688 309.160156 " fill-opacity="1" fill-rule="nonzero"/></g></svg>