<svg xmlns="http://www.w3.org/2000/svg" xmlns:xlink="http://www.w3.org/1999/xlink" width="1024" zoomAndPan="magnify" viewBox="0 0 768 767.999994" height="1024" preserveAspectRatio="xMidYMid meet" version="1.0"><defs><clipPath id="396f2c8218"><path d="M 178.972656 147.824219 L 589.191406 147.824219 L 589.191406 619.96875 L 178.972656 619.96875 Z M 178.972656 147.824219 " clip-rule="nonzero"/></clipPath></defs><g clip-path="url(#396f2c8218)"><path fill="#5faa41" d="M 523.921875 283.621094 C 523.527344 283.78125 523.128906 283.925781 522.714844 284.054688 C 513.648438 286.015625 505.320312 285.089844 497.457031 284.28125 C 494.988281 283.582031 492.492188 282.972656 489.984375 282.449219 C 489.855469 282.363281 489.730469 282.277344 489.597656 282.195312 C 483.222656 278.253906 477.855469 277.863281 474.382812 280.28125 C 470.195312 279.988281 466.082031 279.929688 462.136719 280.109375 C 467.738281 277.3125 473.101562 274.597656 478.203125 271.792969 C 483.382812 268.949219 487.253906 265.527344 490.53125 262.097656 C 490.9375 261.996094 491.34375 261.894531 491.75 261.804688 C 491.902344 261.769531 492.117188 261.730469 492.367188 261.695312 C 484.941406 271.742188 493.363281 280.808594 504.773438 283.226562 C 513.25 285.023438 521.753906 279.878906 529.410156 280.597656 C 527.582031 281.742188 525.855469 282.855469 523.921875 283.621094 Z M 492.238281 260.25 C 492.242188 260.273438 492.242188 260.292969 492.246094 260.3125 C 492.222656 260.320312 492.195312 260.320312 492.167969 260.328125 C 492.191406 260.300781 492.214844 260.277344 492.238281 260.25 Z M 385.757812 328.460938 C 379.179688 313.207031 367.925781 305.898438 354.804688 296.777344 C 346.890625 283.820312 347.339844 265.742188 358.15625 257.089844 C 354.511719 273.167969 374.558594 276.253906 385.757812 270.457031 Z M 277.101562 259.816406 C 277.320312 258.402344 277.21875 257.070312 276.8125 255.847656 C 278.210938 257.441406 279.648438 259.136719 281.195312 260.84375 C 279.824219 260.429688 278.457031 260.089844 277.101562 259.816406 Z M 565.34375 268.144531 C 554.847656 265.335938 548.1875 268.546875 547.054688 275.289062 C 544.460938 275.265625 541.371094 275.59375 537.761719 276.589844 C 537.675781 276.613281 537.601562 276.640625 537.515625 276.664062 C 536.433594 272.523438 534.625 267.828125 531.632812 264.28125 C 525.804688 257.386719 517.71875 248.957031 506.515625 249.257812 C 505.089844 249.296875 503.769531 249.421875 502.546875 249.628906 C 507.566406 245.769531 513.777344 242.816406 520.457031 240.984375 C 525.25 239.671875 530.433594 237.789062 536.007812 238.246094 C 536.082031 238.246094 536.160156 238.257812 536.234375 238.257812 C 531.5 241.355469 523.191406 245.640625 530.757812 256.148438 C 538.570312 267 548.769531 269.980469 562.570312 264.039062 C 583.1875 255.164062 587.578125 242.308594 588.296875 239.539062 C 579.097656 241.105469 575.375 238.085938 566.976562 231.722656 C 558.585938 225.355469 550.675781 224.042969 542.449219 227.90625 C 537.402344 230.28125 536.507812 233.753906 536.484375 235.972656 C 527.292969 235.445312 518.519531 239.230469 512.058594 241.382812 C 508.40625 242.601562 504.816406 244.308594 501.5 246.222656 C 503.054688 242.117188 503.867188 238.160156 504.242188 234.640625 C 504.402344 233.140625 504.488281 231.625 504.503906 230.097656 C 505.132812 223.921875 505.570312 222.136719 507.871094 217.058594 C 508.960938 214.660156 509.867188 213.460938 510.925781 212.199219 C 510.625 225.332031 523.492188 227.785156 535.117188 223.136719 C 547.769531 218.074219 551.628906 199.789062 567.886719 205.058594 C 566.839844 203.691406 558.171875 192.753906 547.902344 189.808594 C 538.46875 187.105469 526.0625 184.378906 516.132812 191.410156 C 507.269531 197.691406 505.484375 204.863281 509.960938 210.035156 C 508.277344 212.015625 506.5625 214.597656 505.023438 218.011719 C 504.53125 219.097656 504.105469 220.125 503.726562 221.109375 C 502.261719 213.261719 498.679688 205.914062 492.671875 200.820312 C 496.324219 195.253906 493.734375 188.441406 484.402344 183.203125 C 473.792969 177.242188 461.742188 181.25 452.636719 184.925781 C 442.738281 188.925781 435.265625 200.707031 434.359375 202.179688 C 449.980469 195.238281 455.734375 213.023438 468.84375 216.734375 C 480.871094 220.144531 493.394531 216.371094 491.765625 203.382812 C 493.332031 204.992188 495.140625 207.042969 496.527344 209.402344 C 499.867188 215.089844 501.0625 217.558594 501.234375 226.558594 C 501.269531 228.085938 501.207031 229.699219 501.039062 231.375 C 499.921875 242.496094 493.871094 256.457031 475.359375 266.628906 C 469.097656 270.070312 444.527344 280.667969 442.273438 281.828125 C 443.003906 280.957031 443.722656 280.03125 444.433594 279.054688 C 450.988281 269.988281 455.910156 256.730469 454.351562 244.496094 C 454.199219 243.921875 454.011719 243.371094 453.792969 242.84375 C 460.929688 239.457031 462.1875 231.222656 455.40625 220.980469 C 448.003906 209.804688 434.175781 207.671875 423.40625 206.699219 C 411.683594 205.636719 398.417969 213.429688 396.792969 214.414062 C 415.601562 215.464844 412.28125 235.789062 423.261719 246.027344 C 433.277344 255.355469 446.367188 257.875 451.347656 244.59375 C 451.507812 245.160156 451.648438 245.722656 451.777344 246.28125 C 452.636719 258.1875 444.953125 271.945312 436.414062 281.554688 C 433.707031 284.609375 431.28125 287.917969 428.1875 289.324219 C 412.09375 296.632812 399.703125 304.558594 392.28125 316.304688 L 392.28125 266.285156 C 399.300781 261.25 405.789062 255.980469 415.40625 261.402344 C 414.648438 259.855469 408.328125 247.414062 398.851562 242.488281 C 396.808594 241.429688 394.601562 240.335938 392.28125 239.34375 L 392.28125 218.363281 C 392.28125 209.484375 395.09375 190.945312 401.414062 180.21875 C 402.402344 191.324219 413.84375 192.625 423.828125 187.878906 C 434.957031 182.589844 437.433594 165.902344 452.414062 169.730469 C 452.414062 169.730469 452.375 169.6875 452.304688 169.609375 C 451.277344 168.4375 442.898438 159.136719 433.46875 157.066406 C 424.792969 155.164062 413.441406 153.40625 404.875 160.324219 C 396.941406 166.734375 395.949219 173.574219 400.886719 177.984375 C 394.203125 186.949219 390.613281 199.019531 388.898438 207.496094 C 385.023438 183.550781 372.476562 171.042969 362.414062 165.492188 C 365.171875 159.046875 361.207031 152.542969 350.578125 149.039062 C 338.609375 145.089844 327.152344 151.5625 318.632812 157.105469 C 309.359375 163.140625 304.101562 176.617188 303.476562 178.292969 C 317.976562 168.132812 327.371094 185.054688 341.441406 186.222656 C 354.367188 187.296875 366.367188 180.949219 362.0625 168.027344 C 367.59375 171.667969 385.664062 185.488281 385.664062 219.847656 L 385.757812 219.964844 L 385.757812 237.019531 C 379.871094 235.390625 373.558594 235.03125 367.394531 237.753906 C 357.457031 242.152344 354.285156 248.824219 357.640625 254.785156 C 355.597656 256.390625 353.402344 258.578125 351.214844 261.621094 C 344.546875 270.882812 343.925781 281.484375 347.957031 291.914062 C 337.597656 284.316406 329.742188 277.949219 325.152344 268.59375 C 337.851562 274.777344 345.59375 263.996094 346.449219 250.394531 C 347.382812 235.472656 331.046875 223.03125 343.9375 209.402344 C 342.089844 209.796875 327.148438 213.230469 319.382812 222.023438 C 312.253906 230.101562 303.703125 241.109375 306.011719 254.265625 C 308.113281 266.265625 314.621094 271.378906 322.070312 269.019531 C 324.328125 273.910156 327.605469 278.210938 331.078125 282.332031 C 328.824219 281.175781 304.253906 270.574219 297.992188 267.128906 C 279.484375 256.960938 273.429688 243 272.3125 231.878906 C 272.144531 230.203125 272.082031 228.589844 272.117188 227.0625 C 272.292969 218.0625 273.488281 215.59375 276.824219 209.90625 C 278.210938 207.546875 280.019531 205.496094 281.585938 203.886719 C 279.957031 216.875 292.480469 220.648438 304.507812 217.238281 C 317.621094 213.527344 323.375 195.742188 338.992188 202.679688 C 338.089844 201.210938 330.617188 189.429688 320.714844 185.429688 C 311.609375 181.753906 299.558594 177.75 288.949219 183.707031 C 279.617188 188.945312 277.027344 195.757812 280.679688 201.324219 C 274.664062 206.425781 271.082031 213.789062 269.617188 221.648438 C 268.40625 218.730469 267.039062 216.429688 265.667969 214.617188 C 270.292969 209.847656 268.957031 202.792969 260.707031 196.21875 C 251.460938 188.851562 239.285156 190.820312 229.984375 192.921875 C 219.871094 195.214844 210.867188 205.34375 209.769531 206.613281 C 225.824219 202.394531 228.566406 220.335938 240.558594 225.941406 C 251.570312 231.089844 264.179688 229.410156 264.613281 216.660156 C 271.484375 225.886719 266.242188 231.875 271.851562 246.726562 C 266.296875 243.519531 260.242188 241.207031 253.667969 240.378906 C 244.882812 239.242188 236.199219 238.5 228.457031 240.929688 C 227.902344 238.777344 226.199219 235.632812 220.753906 234.53125 C 211.847656 232.722656 204.476562 235.871094 197.832031 244.042969 C 191.183594 252.214844 188.28125 256.03125 178.972656 256.691406 C 180.332031 259.207031 187.644531 270.660156 209.777344 274.398438 C 224.59375 276.898438 233.796875 271.589844 238.8125 259.199219 C 243.671875 247.195312 234.582031 245 229.246094 243.113281 C 237.613281 240.714844 242.71875 241.101562 251.890625 242.058594 C 252.273438 242.144531 252.648438 242.234375 253.03125 242.328125 C 259.730469 243.925781 265.8125 246.519531 270.765625 250.175781 C 268.84375 249.425781 266.503906 248.9375 263.761719 248.773438 C 253.035156 248.140625 245.023438 255.976562 239.21875 262.40625 C 232.90625 269.40625 231.917969 281.675781 231.769531 283.179688 C 241.480469 271.644531 252.539062 283.507812 264.386719 281.394531 C 275.394531 279.425781 283.75 270.996094 276.941406 261.136719 C 277.9375 261.316406 280.890625 262.148438 283.472656 263.269531 C 290.085938 270.015625 294.417969 272.230469 311.214844 280.613281 C 300.105469 280.105469 287.664062 281.449219 275.894531 284.785156 C 268.03125 285.59375 258.6875 285.386719 249.464844 284.417969 C 244.699219 283.921875 237.933594 282.460938 231.769531 283.179688 C 228.042969 283.617188 226.207031 284.546875 223.8125 285.546875 C 220.230469 279.722656 212.847656 279.25 204.175781 285.792969 C 194.464844 293.121094 193.3125 305.761719 193.039062 315.5625 C 192.738281 326.230469 200.554688 337.796875 201.539062 339.210938 C 201.429688 322.128906 220.042969 323.984375 228.699219 313.46875 C 236.648438 303.808594 238.199219 290.808594 225.582031 287.121094 C 233.765625 283.769531 242.519531 286.117188 248.953125 287.417969 C 253.433594 288.324219 257.578125 289.8125 261.765625 289.957031 C 257.3125 292.011719 252.757812 294.605469 249.222656 297.660156 C 248.605469 298.195312 248.011719 298.734375 247.464844 299.296875 C 242.628906 304.078125 236.800781 310.65625 233.738281 319.253906 C 231.707031 318.339844 228.25 317.738281 224.007812 321.164062 C 216.941406 326.875 214.671875 334.558594 216.742188 344.878906 C 218.816406 355.203125 219.910156 359.871094 214.488281 367.460938 C 217.296875 368.019531 230.789062 369.679688 247.773438 355.015625 C 259.144531 345.195312 260.910156 334.726562 254.546875 322.96875 C 248.378906 311.585938 240.894531 317.179688 236.039062 320.089844 C 236.070312 320.019531 236.101562 319.949219 236.128906 319.882812 C 239.316406 311.652344 245.542969 306.148438 250.230469 301.511719 C 250.660156 301.203125 251.09375 300.902344 251.527344 300.601562 C 271.371094 286.902344 303.003906 281.144531 322.230469 287.757812 C 339.875 293.824219 356.207031 302.761719 367.6875 317.851562 C 364.929688 314.222656 357.78125 312.1875 353.652344 311.152344 C 354.882812 304.996094 350.207031 300.066406 340.277344 299.03125 C 329.136719 297.871094 320.417969 305.65625 314.078125 312.082031 C 307.175781 319.078125 305.171875 331.757812 304.945312 333.332031 C 315.601562 321.765625 326.964844 334.6875 339.402344 333.035156 C 350.960938 331.5 360.054688 323.109375 353.421875 312.519531 C 356.265625 313.164062 362.621094 316.214844 367.800781 320.460938 C 369.820312 322.269531 371.824219 324.328125 373.800781 326.550781 C 379.722656 336.257812 376.488281 352.363281 378.882812 362.398438 C 380.652344 369.828125 380.570312 398.144531 367.195312 408.390625 C 361.324219 412.886719 354.976562 412.113281 343.25 415.003906 C 331.855469 417.816406 318.191406 425.414062 310.832031 428.945312 C 304.84375 431.816406 301.070312 435.707031 299.34375 439.414062 C 295.929688 442.316406 292.648438 445.003906 290.675781 445.988281 C 285.953125 448.347656 272.207031 457.695312 271.042969 469.300781 C 270.765625 472.089844 270.863281 474.375 271.332031 476.269531 C 270.148438 478.273438 267.644531 483.714844 269.125 489.371094 C 269.84375 492.128906 270.898438 493.21875 273.410156 495.019531 C 266.1875 505.496094 258.765625 530.265625 271.363281 541.320312 C 271.148438 543.671875 270.566406 561.335938 291.171875 572.863281 C 299.132812 577.320312 314.859375 578.402344 321.851562 577.070312 C 315.304688 578.320312 299.710938 574.855469 292.363281 570.742188 C 275.4375 561.273438 273.910156 548.089844 273.949219 543.363281 C 280.332031 547.910156 285.785156 548.109375 289.257812 547.316406 C 290.8125 547.90625 294.191406 549.582031 295.144531 553.480469 C 295.84375 556.324219 296.183594 560.195312 293.933594 563.746094 C 297.3125 558.410156 299.730469 554.25 295.445312 548.828125 C 299.976562 550.648438 304.699219 554.152344 308.414062 560.054688 C 313.445312 568.054688 319.09375 574.511719 327.796875 574.746094 C 328.324219 575.839844 332.398438 582.585938 342.992188 583.144531 C 344.304688 585.355469 350.941406 595.09375 363.667969 590.855469 C 365.378906 590.285156 367.007812 589.179688 368.476562 587.792969 C 372.210938 587.34375 379.210938 587.074219 380.160156 589.15625 C 379.074219 586.777344 375.644531 585.945312 372.375 585.945312 C 371.550781 585.945312 370.789062 585.980469 370.144531 586.019531 C 372.558594 583.140625 374.292969 579.636719 374.824219 576.949219 C 374.1875 579.5625 371.539062 583.394531 368.277344 586.210938 C 366.652344 587.609375 364.886719 588.742188 363.15625 589.316406 C 351.609375 593.160156 346.523438 585.222656 345.410156 583.167969 C 348.257812 583.066406 351.5 582.542969 355.210938 581.410156 L 354.863281 581.410156 C 337.019531 585.285156 331.878906 576.953125 330.808594 574.585938 C 334.417969 574.125 338.519531 572.667969 343.25 569.945312 C 322.144531 580.550781 312.136719 560.953125 308.886719 556.414062 C 318.71875 561.230469 324.5625 556.773438 326.367188 556.289062 C 330.023438 555.308594 340.136719 556.367188 343.253906 561.902344 C 340.253906 556.027344 333.648438 554.511719 329.25 554.367188 C 333.886719 550.621094 336.132812 545.152344 335.902344 540.792969 C 336.171875 545.945312 329.726562 553.117188 322.113281 555.457031 C 315.28125 557.558594 310.652344 554.90625 304.980469 551.386719 C 308.023438 551.554688 311.6875 550.242188 316.355469 543.21875 C 311.433594 550.394531 305.757812 551.011719 302.246094 549.433594 C 298.816406 547.894531 296.175781 545.976562 293.144531 545.492188 C 296.914062 543.015625 300.183594 538.558594 302.132812 533.679688 C 302.054688 533.878906 302.007812 533.992188 302.179688 533.570312 C 304.121094 528.734375 305.460938 521.863281 307.847656 517.480469 C 307.871094 517.4375 310.40625 513.582031 313.792969 512.523438 C 311.734375 512.664062 309.679688 513.003906 308.558594 513.765625 C 309.222656 509.058594 307.804688 504.957031 305.722656 500.53125 C 310.039062 509.695312 304.246094 521.894531 299.917969 532.675781 C 299.75 533.089844 299.792969 532.980469 299.867188 532.792969 C 297.558594 538.550781 293.199219 543.792969 288.636719 544.898438 C 283.753906 546.078125 278.25 544.132812 272.71875 539.285156 C 261.027344 529.023438 270.667969 505.390625 276.726562 496.578125 C 279.921875 498.175781 284.183594 495.648438 285.109375 495.214844 C 283.523438 495.949219 278.824219 494.898438 277.785156 494.382812 C 274.933594 492.957031 273.238281 491.089844 272.609375 488.679688 C 271.722656 485.296875 273.621094 481.132812 274.664062 479.042969 C 276.464844 481.09375 278.710938 482.148438 281.359375 482.523438 C 286.445312 483.246094 289.203125 479.414062 289.597656 476.671875 C 289.398438 478.039062 285.46875 480.652344 281.699219 480.113281 C 279.507812 479.800781 277.765625 478.910156 276.492188 477.433594 C 275.429688 476.199219 275.003906 473.863281 275.363281 470.285156 C 276.234375 461.554688 287.695312 452.914062 292.855469 450.335938 C 294.433594 449.546875 296.425781 448.101562 298.640625 446.320312 C 299.730469 449.425781 303.070312 451.367188 308.515625 450.640625 C 307.136719 450.824219 301.308594 447.957031 301.640625 444.117188 C 301.882812 441.351562 304.058594 438.535156 305.429688 437.363281 C 308.179688 435.007812 309.867188 435.421875 312.425781 434.886719 C 312.113281 435.648438 311.90625 436.410156 311.828125 437.171875 C 311.570312 439.589844 312.511719 441.875 314.542969 443.769531 C 320.109375 448.960938 323.527344 444.578125 323.710938 444.441406 C 323.488281 444.59375 319.726562 446.554688 316.246094 443.308594 C 314.949219 442.097656 314.90625 438.921875 315.050781 437.511719 C 315.265625 435.503906 316.949219 433.261719 319.644531 431.320312 C 327.460938 427.691406 337.957031 422.96875 345.109375 421.203125 C 360.925781 417.304688 371.785156 422.445312 382.640625 412.386719 C 384.640625 410.535156 384.527344 411.03125 386.054688 409.117188 C 388.234375 415.488281 390.578125 417.144531 387.769531 421.832031 C 383.398438 429.128906 369.796875 425.792969 363.875 430.300781 C 353.800781 431.78125 348.539062 428.074219 348.480469 428.023438 C 348.71875 428.234375 352.363281 432.433594 360.375 432.742188 C 358.800781 433.734375 356.875 435.199219 355.082031 435.96875 C 350.28125 438.019531 343.683594 440.664062 337.859375 441.050781 C 337.675781 441.0625 337.71875 441.050781 337.796875 441.039062 C 336.382812 440.800781 334.421875 440.453125 333.425781 439.765625 C 332.332031 439.023438 329.644531 437.195312 329.519531 436.019531 C 329.902344 439.621094 331.445312 441.261719 333.949219 442.480469 C 331.75 443.960938 330.332031 446.316406 328.949219 448.625 C 326.574219 452.589844 324.117188 456.683594 317.496094 458.039062 C 311.121094 459.34375 304.722656 460.667969 300.285156 463.953125 C 292.824219 468.46875 286.566406 466.777344 286.492188 466.753906 C 286.785156 466.851562 290.824219 469.269531 296.964844 467.375 C 294.707031 470.679688 293.757812 475.289062 294.867188 481.941406 C 292.457031 467.484375 303.046875 464.300781 318.144531 461.214844 C 332.339844 458.316406 330.828125 444.726562 338.707031 444.199219 C 345.078125 443.777344 351.601562 440.984375 356.359375 438.945312 C 358.101562 438.203125 359.78125 437.078125 361.070312 435.832031 C 361.03125 437.542969 361.382812 439.285156 361.546875 440.726562 C 361.257812 438.246094 363.175781 435.097656 364.191406 433.828125 C 365.71875 431.917969 369.789062 431.9375 376.03125 431.273438 C 383.257812 430.507812 390.722656 427.96875 392.488281 420.910156 C 394.773438 424.03125 397.398438 426.65625 399.625 429.613281 C 401.082031 431.554688 397.957031 435.566406 394.796875 437.5625 C 390.753906 440.113281 386.683594 440.734375 385.011719 440.457031 C 381.660156 439.898438 378.742188 436.222656 378.296875 434.21875 C 378.726562 436.144531 379.390625 439.238281 381.34375 441.179688 C 375.757812 441.484375 373.640625 443.667969 373.511719 443.761719 C 373.546875 443.738281 377.300781 442.292969 384.71875 442.863281 C 385.636719 443.007812 386.796875 442.984375 388.09375 442.785156 C 386.089844 445.160156 383.121094 447.460938 379.464844 448.273438 C 375.714844 449.105469 371.871094 450.316406 367.378906 449.835938 C 360.148438 449.058594 355.699219 445.164062 355.652344 445.109375 C 355.824219 445.308594 357.703125 448.078125 361.941406 449.753906 C 349.0625 452.542969 338.28125 457.082031 329.792969 464.046875 C 327.617188 465.832031 325.273438 467.550781 323.335938 469.695312 C 319.390625 471.425781 309.703125 476.296875 300.542969 485.441406 C 300.0625 485.921875 299.652344 486.476562 299.148438 486.945312 C 291.921875 493.664062 285.773438 490.738281 285.554688 490.609375 C 285.800781 490.761719 289.007812 494.679688 295.691406 491.621094 C 292.207031 497.195312 289.992188 507.28125 288.226562 509.046875 C 284.71875 512.550781 277.507812 515.472656 275.949219 525.632812 C 276.292969 523.382812 280.414062 515.160156 288.421875 512.746094 C 287.433594 520.273438 288.035156 527.328125 290.214844 531.832031 C 285.816406 522.742188 292.078125 498.480469 302.835938 487.730469 C 309.875 480.707031 315.882812 477.027344 319.363281 475.265625 C 315.871094 481.800781 315.570312 489.03125 318.472656 496.761719 C 319.4375 499.339844 321.109375 501.191406 322.722656 502.984375 C 326.167969 506.804688 329.136719 510.097656 325.59375 520.132812 C 320.117188 535.640625 312.421875 534.785156 310.0625 534 C 312.917969 534.949219 316.191406 535.585938 319.429688 534.097656 C 319.519531 535.277344 319.96875 536.40625 320.507812 537.707031 C 321.472656 540.027344 323.726562 541.035156 326.503906 542.054688 C 323.625 540.996094 320.769531 536.820312 321.691406 532.679688 C 324.007812 530.800781 326.257812 527.574219 328.25 522.300781 C 330.585938 527.839844 335.136719 529.816406 338.671875 530.375 C 341.210938 532.195312 346.585938 537.171875 348.074219 542.042969 C 348.703125 544.097656 349.292969 547.316406 348.46875 548.777344 C 345.339844 554.308594 340.671875 553.480469 339.160156 553.242188 C 340.824219 553.507812 345.933594 555.539062 349.894531 548.542969 C 351.8125 545.148438 350.796875 541.242188 348.851562 537.820312 C 350.25 538.425781 351.640625 538.875 353.003906 539.171875 L 352.996094 539.230469 C 354.277344 539.421875 355.675781 539.714844 357.089844 540.109375 C 358.96875 541.816406 359.878906 543.789062 359.792969 545.992188 C 359.679688 548.808594 358.359375 551.871094 357.207031 552.589844 C 361.738281 549.761719 362.511719 544.964844 360.042969 541.09375 C 363.210938 542.328125 366.125 544.097656 367.644531 546.449219 C 368.828125 548.277344 370.257812 550.609375 369.613281 552.898438 C 370.449219 549.9375 371.25 547.542969 369.691406 545.128906 C 367.792969 542.195312 364.46875 540.246094 361.285156 538.972656 C 364.164062 538.125 366.289062 536.679688 368.261719 534.511719 C 370.585938 532.96875 373.367188 531.816406 375.714844 532.269531 C 380.457031 533.179688 380.09375 539.207031 385.109375 543.875 C 388.382812 547.605469 388.460938 550.773438 388.222656 551.972656 C 388.414062 551.015625 389.25 548.789062 388.1875 545.9375 C 390.832031 547.144531 394.292969 547.503906 399.140625 546.863281 C 389.28125 548.027344 386.089844 543.113281 382.1875 535.019531 C 379.636719 529.730469 374.914062 528.722656 371.109375 530.625 C 372.722656 527.894531 373.9375 524.730469 374.496094 521.53125 C 375.542969 515.527344 373.320312 510.773438 369.925781 506.726562 C 377.792969 516.101562 368.3125 547.835938 346.027344 533.667969 C 345 532.433594 343.871094 531.394531 342.855469 530.457031 C 347.230469 529.898438 348.625 526.570312 350.382812 521.292969 C 348.578125 526.710938 344.234375 527.980469 338.851562 527.128906 C 333.867188 526.34375 330.894531 522.710938 330.003906 516.34375 C 330.84375 512.007812 330.316406 508.90625 329.191406 506.445312 C 332.148438 507.527344 335.894531 507.101562 341.386719 502.390625 C 334.273438 508.488281 329.953125 504.722656 326.21875 501.714844 C 325.980469 501.523438 325.324219 501.019531 325.136719 500.816406 C 324.097656 499.664062 323.105469 498.554688 322.347656 497.308594 C 325.980469 499.617188 329.96875 498.496094 333.429688 495.929688 C 342.375 489.3125 339.976562 483.34375 348.453125 481.851562 C 341.636719 483.050781 338.914062 485.902344 336.964844 488.789062 C 336.695312 485.433594 335.71875 479.347656 340.191406 475.4375 C 331.972656 482.621094 336.097656 489.753906 334.832031 491.4375 L 334.871094 491.464844 C 332.253906 494.167969 328.277344 497.128906 324.734375 495.808594 C 322.589844 495.007812 320.8125 492.976562 320.136719 490.714844 C 318.679688 485.847656 320.792969 481.613281 323.125 477.296875 C 326.421875 471.1875 331.835938 466.839844 337.546875 464.441406 C 345.78125 460.980469 357.34375 457.527344 366.984375 455.871094 C 358.222656 463.886719 353.90625 475.585938 360.484375 485.476562 C 361.625 492.871094 360.492188 498.667969 357.09375 502.710938 C 351.929688 508.851562 343.304688 510.136719 342.941406 510.136719 C 343.261719 510.136719 349.289062 510.832031 354.71875 507.777344 C 353.402344 513.523438 354.859375 515.773438 356.410156 517.238281 C 358.054688 518.796875 360.164062 519.394531 362.480469 518.503906 C 361.121094 519.027344 358.878906 518.347656 357.457031 517.003906 C 356.277344 515.890625 354.296875 509.78125 357.628906 505.65625 C 362.25 501.398438 363.660156 495.140625 363.296875 488.847656 C 367.113281 492.539062 372.152344 494.714844 376.746094 495.765625 C 380.867188 497.765625 383.792969 501.351562 383.261719 505.492188 C 384.628906 501.878906 382.941406 498.386719 379.671875 496.300781 C 382.511719 496.679688 385.007812 496.609375 386.671875 496.191406 C 382.109375 497.335938 365.761719 491.746094 361.515625 480.441406 C 357.660156 470.160156 364.214844 461.414062 372.691406 455.878906 C 373.996094 455.625 375.296875 455.363281 376.59375 455.097656 C 375.777344 457.074219 375.339844 459.203125 375.523438 461.257812 C 375.820312 464.5625 378.238281 467.460938 385.742188 469.851562 C 381.082031 468.367188 379.058594 464.355469 378.753906 460.96875 C 378.546875 458.628906 378.378906 454.546875 380.695312 454.21875 C 384.144531 453.730469 403.441406 445.160156 407.085938 435.449219 C 412.691406 442.285156 416.503906 453.050781 416.503906 459.898438 C 416.503906 462.804688 415.65625 464.957031 413.917969 466.46875 C 406.945312 472.542969 398.753906 470.136719 393.664062 466.828125 C 396.980469 468.984375 400.714844 474.960938 409.875 471.648438 C 406.148438 475.578125 398.304688 481.460938 394.585938 482.554688 C 390.226562 483.835938 381.167969 480.644531 378.609375 476.671875 C 381.546875 481.238281 389.140625 487.53125 395.503906 485.664062 C 396.648438 485.328125 397.882812 484.84375 399.152344 484.230469 C 397.671875 489.4375 396.695312 497.917969 406.832031 502.703125 C 398.761719 498.894531 398.765625 487.941406 402.882812 482.628906 C 405.457031 479.304688 408.683594 476.558594 412.019531 473.789062 C 413.339844 472.695312 414.855469 470.726562 416.503906 469.3125 C 422.050781 477.246094 425.863281 474.789062 432.265625 471.402344 C 428.847656 473.210938 424.707031 473.023438 422.363281 471.980469 C 421.570312 471.628906 421.125 470.316406 420.414062 469.75 C 419.714844 469.1875 419.488281 465.730469 419.78125 464.628906 C 420.296875 462.679688 420.984375 460.550781 420.988281 458.597656 C 420.988281 452.1875 419.414062 445.035156 415.515625 438.867188 C 423.230469 444.148438 440.667969 456.246094 439.707031 465.824219 C 439.109375 471.785156 434.402344 474.03125 429.921875 477.976562 C 427.4375 480.160156 421.714844 480.816406 417.875 483.765625 C 413.574219 487.070312 413.386719 491.671875 412.726562 494.644531 C 413.351562 491.820312 415.730469 488.484375 419.359375 485.691406 C 420.878906 484.523438 424.496094 483.113281 426.609375 482.296875 C 421.996094 488.324219 420.453125 490.53125 418.621094 500.222656 C 418.214844 502.355469 416.15625 507.777344 413.6875 510.789062 C 411.609375 513.324219 408.191406 514.65625 405.03125 514.5 C 399.765625 514.238281 396.3125 507.417969 396.289062 507.347656 C 396.347656 507.550781 396.847656 510.351562 398.460938 512.875 C 395.898438 512.171875 393.726562 511.820312 391.953125 511.820312 C 389.855469 511.820312 388.890625 512.878906 387.910156 513.855469 C 389.4375 512.332031 394.34375 513.15625 400.429688 515.164062 C 403.382812 517.648438 407.378906 517.269531 410.777344 515.671875 C 409.53125 517.902344 408.980469 520.109375 408.238281 521.820312 C 405.308594 528.539062 396.257812 528.214844 389.464844 521.601562 C 391.722656 523.804688 393.667969 525.625 395.484375 526.925781 C 390.570312 528.015625 389.789062 532.402344 389.773438 532.453125 C 389.832031 532.273438 392.019531 528.332031 397.777344 528.304688 C 399.117188 528.9375 402.515625 528.972656 402.867188 528.886719 C 402.996094 532.980469 411.902344 541.460938 410.234375 547.484375 C 409.589844 549.800781 408.011719 552.46875 404.660156 554.140625 C 408.445312 552.25 411.023438 550.703125 411.792969 547.917969 C 412.621094 544.9375 411.195312 540.628906 408.535156 536.449219 C 405.800781 532.191406 404.6875 529.210938 405.585938 528.132812 C 406.542969 526.984375 407.128906 526.714844 408.191406 525.636719 C 409.265625 535.824219 418.976562 537.773438 418.976562 544.535156 C 418.976562 551.710938 412.984375 561.019531 400.011719 563.128906 C 394.015625 564.101562 390.105469 562.347656 386.054688 560.03125 C 381.882812 557.648438 376.640625 554.207031 370.539062 555.820312 C 365.832031 557.066406 362.273438 560.167969 360.253906 564.792969 C 357.824219 570.359375 360.449219 575.394531 362.171875 578.621094 C 361.21875 576.839844 360.597656 570.230469 362.480469 565.917969 C 363.902344 562.660156 368.203125 559.964844 371.472656 559.097656 C 379.390625 557.011719 384.339844 568.15625 399.554688 566.820312 C 396.984375 569.050781 394.949219 571.640625 394.050781 574.332031 C 388.832031 579.3125 382.097656 580.476562 382.019531 580.480469 C 382.328125 580.460938 388.265625 580.519531 393.566406 576.738281 C 393.503906 577.6875 393.597656 578.644531 393.882812 579.589844 C 395.445312 584.792969 397.476562 586.003906 400.441406 586.054688 C 399.488281 586.007812 397.113281 585.488281 395.449219 579.941406 C 394.90625 578.128906 396.179688 575.070312 397.167969 573.289062 C 402.394531 564.359375 408.617188 565.636719 414.242188 561.855469 C 413.378906 568.140625 415.964844 572.707031 421.34375 575.011719 C 422.476562 575.945312 425.414062 578.660156 425.476562 579.988281 C 425.40625 578.492188 424.667969 576.996094 423.933594 575.867188 C 426.867188 576.617188 429.597656 576.578125 431.730469 575.769531 C 434.707031 574.632812 434.765625 571.859375 435.058594 571.183594 C 434.863281 571.636719 432.839844 574.007812 430.753906 574.804688 C 428.523438 575.65625 424.253906 574.453125 420.820312 572.980469 C 415.785156 570.824219 413.472656 565.558594 417.117188 559.597656 C 420.191406 554.574219 423.84375 550.335938 423.84375 544.535156 C 423.84375 534.167969 412.339844 533.242188 412.984375 522.996094 C 413.054688 521.875 413.867188 520.121094 414.945312 518.191406 C 414.957031 520.253906 415.3125 522.335938 416.246094 524.144531 C 417.535156 526.636719 419.984375 527.082031 422.960938 527.800781 C 419.171875 526.886719 415.472656 519.109375 418.054688 512.984375 C 419.03125 510.667969 420.597656 508.765625 421.507812 506.828125 C 423.628906 512.191406 428.066406 515.929688 434.152344 517.003906 C 436.523438 517.421875 438.773438 517.265625 440.921875 517.28125 C 445.675781 517.320312 451.792969 518.730469 454.285156 524.390625 C 452.308594 519.902344 449.28125 517.550781 446.101562 516.25 C 451.339844 514.609375 455.480469 511.433594 458.007812 508.277344 C 454.460938 512.707031 444.273438 515.492188 434.71875 513.808594 C 426.078125 512.289062 422.910156 504.203125 423.488281 500.128906 C 424.011719 496.480469 426.539062 491.664062 430.238281 487.316406 C 436.992188 479.386719 444.359375 481.316406 446.53125 467.066406 C 447.238281 462.441406 445.796875 456.300781 443.160156 452.601562 C 450.050781 453.847656 459.714844 455.589844 465.046875 463.273438 C 469.625 469.882812 463.292969 477.546875 455.527344 478.839844 C 457.777344 478.464844 459.792969 478.09375 461.550781 477.621094 C 460.246094 480.191406 460.121094 483.863281 463.589844 486.898438 C 459.269531 483.117188 463.746094 477.097656 463.925781 476.847656 C 467.511719 475.417969 469.691406 472.925781 469.773438 468.222656 C 472.636719 473.167969 474.792969 479.050781 475.300781 486.125 C 475.378906 487.246094 474.179688 489.546875 473.621094 490.542969 C 470.855469 495.460938 465.878906 496.675781 461.761719 497.382812 C 456.117188 498.355469 449.246094 495.703125 445.390625 492.394531 C 447.195312 493.945312 449.476562 496.460938 452.390625 498.332031 C 447.832031 500.183594 447.21875 504.351562 447.148438 504.5625 C 447.214844 504.375 449.628906 500.609375 455.675781 499.984375 C 462.636719 502.507812 471.625 498.191406 475.757812 492.523438 C 475.929688 498.542969 475.675781 506.902344 474.0625 514.070312 C 471.914062 523.625 463.96875 532.042969 454.78125 534.605469 C 442.628906 537.996094 431.433594 526.6875 431.335938 526.5625 C 431.539062 526.820312 433.597656 529.894531 437.085938 532.847656 C 431.347656 533.101562 429.015625 536.933594 428.851562 537.097656 C 429.019531 536.9375 433.640625 534.101562 440.933594 535.589844 C 452.375 542.28125 464.316406 535.816406 471.347656 526.625 C 468.988281 535.589844 466.738281 545.796875 461.246094 553.554688 C 457.910156 558.261719 451.683594 561.597656 444.542969 560.011719 C 441.382812 559.3125 433.3125 556.003906 433.945312 550.875 C 432.945312 556.515625 437.804688 559.546875 439.945312 560.597656 C 438.058594 560.4375 436.027344 560.152344 433.816406 559.71875 C 444.777344 563.308594 452.25 562.527344 457.582031 559.964844 C 455.984375 562.5 454.273438 564.871094 452.460938 567.019531 C 449.667969 570.332031 446.554688 575.519531 441.253906 579.597656 C 434.019531 585.160156 420.316406 587.027344 413.359375 577.757812 C 415.226562 580.242188 417.308594 582.035156 419.511719 583.277344 C 416.878906 582.949219 414.582031 582.839844 412.769531 582.839844 C 410.046875 582.839844 408.515625 583.867188 408.382812 583.890625 C 408.441406 583.878906 415 583.4375 422.667969 584.664062 C 427.28125 586.15625 432.183594 585.605469 436.570312 584.007812 C 433.878906 586.394531 430.671875 588.921875 427.414062 591.132812 C 418.609375 596.574219 410.195312 593.304688 408.054688 592.171875 C 406.179688 590.585938 403.65625 587.460938 404.601562 582.484375 C 403.175781 585.648438 403.5 588.417969 404.464844 590.535156 C 403.824219 590.390625 402.871094 590.523438 402.3125 590.578125 C 399.460938 590.863281 398.519531 594.015625 398.457031 594.121094 C 398.464844 594.101562 400.886719 592.171875 402.660156 591.824219 C 403.824219 591.597656 404.777344 592.917969 406.128906 593.871094 C 406.226562 593.933594 410.75 596.78125 417.097656 596.75 C 405.339844 600.84375 390.527344 603.429688 377.664062 601.628906 C 384.117188 598.640625 385.285156 593.789062 385.429688 593.492188 C 385.277344 593.792969 381.21875 598.339844 372.792969 600.773438 C 360.820312 604.035156 341.214844 601.007812 326.359375 589.417969 C 330.804688 587.449219 332.339844 583.949219 332.394531 583.890625 C 331.953125 584.390625 319.78125 596.242188 301.691406 585.75 C 311.105469 591.210938 318.191406 592.101562 323.703125 590.410156 C 339.808594 603.488281 360.84375 606.527344 373.089844 603.261719 C 378.753906 604.527344 384.914062 604.84375 391.121094 604.476562 C 389.898438 605.347656 388.988281 606.320312 388.316406 607.292969 C 383.894531 609.800781 377.742188 611.152344 377.675781 611.160156 C 377.933594 611.136719 382.683594 611.578125 387.097656 609.601562 C 386.378906 611.457031 386.375 612.925781 386.351562 613.066406 C 386.398438 612.796875 389.238281 606.148438 397.585938 603.863281 C 403.667969 603.066406 408.992188 601.8125 414.355469 600.195312 C 409.238281 604.332031 406.972656 607.5625 401.097656 612.386719 C 392.695312 619.285156 361.398438 620.800781 346.664062 608.371094 C 348.769531 610.851562 351.390625 612.871094 354.34375 614.496094 C 348.527344 614.914062 330.203125 614.816406 323.464844 598.609375 C 323.945312 600.589844 324.636719 602.351562 325.488281 603.933594 C 320.765625 603.589844 297.15625 600.824219 292.027344 579.796875 C 297.46875 602.105469 321.839844 605.0625 326.375 605.414062 C 335.046875 618.683594 356.207031 616.871094 358.875 616.578125 C 374.5 622.59375 395.851562 619.84375 402.640625 614.265625 C 405.722656 611.738281 407.816406 609.660156 409.839844 607.648438 C 413.21875 604.289062 415.867188 600.769531 422.917969 597.132812 C 424.367188 596.386719 425.84375 595.8125 427.1875 595.140625 C 433.191406 592.140625 438.234375 588.425781 442.585938 584.773438 C 442.121094 587.308594 442.804688 590.226562 443.886719 592.164062 C 444.316406 593.453125 445.203125 595.851562 445.292969 597.523438 C 445.242188 596.59375 445.347656 594.996094 445.378906 593.515625 C 446.890625 594.402344 449.203125 594.933594 452.738281 595.042969 C 449.226562 594.933594 446.789062 592.550781 445.613281 590.449219 C 444.335938 588.167969 444.066406 584.453125 446.292969 581.492188 C 451.882812 574.050781 455.800781 573.667969 464.023438 559.996094 C 464.003906 563.289062 464.765625 567.144531 466.992188 569.980469 C 467.714844 573.289062 466.402344 576.425781 466.382812 576.453125 C 466.476562 576.320312 468.238281 574.195312 468.296875 571.191406 C 470.402344 572.679688 474.125 573.042969 476.679688 573.042969 C 473.117188 572.859375 469.757812 571.28125 468.066406 569.132812 C 465.019531 565.253906 465.789062 558.160156 466.90625 554.976562 C 469.308594 548.136719 473.121094 541.65625 475.410156 534.839844 C 477.9375 540.675781 484.109375 542.628906 490.113281 541.652344 C 491.558594 542.015625 493.136719 542.683594 493.878906 543.714844 C 494.375 544.398438 495.230469 545.445312 494.914062 546.394531 C 495.394531 544.960938 495.996094 543.871094 495.195312 542.765625 C 494.613281 541.953125 493.757812 541.351562 492.832031 540.902344 C 497.695312 538.914062 498.835938 534.4375 499.261719 533.378906 C 498.832031 534.449219 494.773438 539.140625 486.339844 538.578125 C 483.347656 538.378906 481.066406 537.347656 479.570312 535.519531 C 473.617188 528.253906 482.503906 521.367188 482.269531 494.226562 C 484.429688 497.050781 487.964844 498.910156 491.808594 499.332031 C 494.449219 499.625 496.871094 500.621094 497.632812 501.871094 C 498.25 502.890625 499 504.601562 498.328125 506.726562 C 499.332031 503.554688 501.015625 500.601562 495.617188 498.542969 C 496.933594 497.984375 497.832031 497.226562 498.414062 496.53125 C 499.820312 494.847656 498.773438 492.761719 498.328125 490.304688 C 498.601562 491.8125 498.578125 494.824219 496.824219 495.800781 C 495.582031 496.488281 492.921875 497.746094 490.386719 497.164062 C 479.800781 494.722656 482.460938 475.3125 474.988281 463.855469 C 484.484375 464.558594 490.433594 464.902344 494.375 472.160156 C 493.433594 471.941406 492.492188 471.820312 491.566406 471.820312 C 486.25 472.160156 483.886719 477.390625 483.746094 477.554688 C 483.773438 477.527344 487.367188 475.304688 491.308594 475.070312 C 493.484375 474.949219 495.699219 475.695312 497.902344 477.285156 C 506.671875 487.515625 507.976562 507.574219 505.59375 515.082031 C 505.179688 516.398438 504 519.140625 501.890625 519.171875 C 500.152344 519.199219 495.457031 516.644531 491.253906 509.96875 C 493.628906 513.738281 494.972656 516.546875 496.644531 518.117188 C 490.96875 518.558594 490.492188 523.484375 490.261719 526.5625 C 490.285156 526.28125 492.078125 516.960938 498.457031 519.511719 C 499.839844 520.066406 502.058594 520.617188 504.035156 521.898438 C 505.058594 522.5625 510.898438 528 504.34375 540.042969 C 498.402344 550.96875 487.308594 552.058594 480.589844 551.707031 C 483.882812 551.878906 488.671875 552.503906 493.515625 551.605469 C 493.042969 553.570312 490.84375 559.949219 481.269531 562.816406 C 484.246094 562.789062 486.78125 561.988281 488.917969 560.789062 C 489.148438 564.09375 488.804688 572.539062 480.972656 577.902344 C 468.949219 586.144531 457.375 584.859375 456.144531 584.507812 C 457.40625 584.867188 461.234375 586.375 467.023438 586.078125 C 467.921875 588.214844 471.1875 597.949219 459.324219 603.871094 C 452.199219 607.433594 440.933594 604.691406 437.824219 602.121094 C 439.398438 603.554688 442.667969 605.496094 446.609375 606.664062 C 442.871094 608.742188 431.953125 613.46875 417.996094 608.679688 C 423.179688 610.960938 427.972656 611.859375 432.214844 611.957031 C 430.417969 613.246094 422.042969 618.617188 408.695312 617.046875 C 423.339844 618.765625 432.777344 613.1875 434.667969 611.921875 C 442.152344 611.554688 447.589844 608.800781 449.867188 607.40625 C 453.324219 607.949219 457.035156 607.734375 460.414062 606.050781 C 468.371094 602.074219 470.296875 596.441406 470.515625 592.414062 C 470.664062 589.605469 470.023438 587.214844 469.535156 585.835938 C 473.542969 585.28125 478.101562 583.800781 482.808594 580.578125 C 492.503906 573.933594 491.625 563 491.023438 559.390625 C 495.011719 556.320312 497.210938 552.035156 497.972656 550.277344 C 501.445312 548.789062 504.714844 546.15625 507.199219 541.589844 C 515.472656 526.378906 507.230469 519.929688 506.761719 519.5625 C 512.523438 510.148438 510.03125 487.730469 500.390625 475.144531 C 496.324219 465.0625 487.117188 461.585938 477.3125 460.257812 C 475.46875 460.011719 469.664062 457.320312 468.558594 456.261719 C 457.792969 445.988281 443.601562 444.460938 436.058594 443.75 C 435.222656 443.035156 434.355469 442.335938 433.476562 441.644531 C 435.605469 441.9375 437.8125 442.011719 440.078125 441.765625 C 445.273438 441.199219 451.703125 440.589844 456.144531 444.753906 C 452.910156 441.722656 449.652344 440.300781 446.171875 439.890625 C 448.460938 438.882812 450.953125 436.675781 453.089844 434.640625 C 445.820312 439.933594 438.46875 440.378906 432 438.96875 C 430.839844 438.714844 424.726562 435.367188 422.773438 434.050781 C 420.511719 432.519531 418.292969 431.019531 416.21875 429.535156 C 421.765625 430.390625 426.203125 431.972656 435.03125 428.921875 C 448.476562 424.269531 460.382812 427.621094 465.277344 433.570312 C 468.238281 437.160156 468.816406 444.953125 467.3125 449.089844 C 468.789062 445.027344 469.625 440.527344 469.160156 436.925781 C 470.382812 437.570312 472.96875 438.386719 474.070312 440.027344 C 476.292969 443.332031 477.136719 449.289062 475.6875 455.289062 C 477.484375 447.859375 478.488281 437.601562 471.191406 435.308594 C 470.304688 435.027344 467.78125 432.800781 467.023438 431.878906 C 460.597656 424.082031 448.988281 420.425781 436.726562 422.335938 C 417.851562 425.28125 410.34375 423.902344 404.03125 417.625 C 400.796875 414.40625 398.78125 409.738281 397.914062 404.78125 C 396.894531 398.960938 394.460938 377.894531 394.460938 369.121094 C 394.460938 349.308594 401.546875 337.464844 406.269531 334.023438 C 408.398438 332.476562 409.777344 331.878906 411.320312 331.296875 C 404.585938 342.578125 414.570312 351.050781 426.976562 352.730469 C 440.484375 354.550781 452.863281 340.542969 464.410156 353.136719 C 464.167969 351.429688 462.027344 337.644531 454.542969 330.027344 C 447.664062 323.027344 438.21875 314.542969 426.109375 315.777344 C 415.296875 316.875 410.210938 322.238281 411.546875 328.945312 C 409.109375 329.839844 406.339844 331.242188 403.316406 333.453125 C 398.75 336.792969 395.871094 339.792969 393.761719 344.527344 C 394.304688 317.773438 413.792969 304.332031 432.851562 295.230469 C 435.566406 293.9375 449.429688 287.835938 451.125 287.25 C 455.824219 285.636719 461.269531 284.765625 467.101562 284.5625 C 468.253906 284.714844 469.144531 284.953125 470.074219 285.238281 C 458.816406 289.695312 461.347656 301.488281 469.46875 309.667969 C 478.304688 318.578125 495.21875 315.289062 496.578125 330.964844 C 497.359375 329.578125 503.542969 318.308594 502.355469 308.550781 C 501.574219 302.113281 500.253906 294.375 496.042969 288.339844 C 505.4375 291.011719 515.09375 295.457031 522.472656 300.550781 C 529.410156 307.417969 533.34375 310.648438 537.3125 319.589844 C 532.460938 316.679688 524.976562 311.078125 518.808594 322.464844 C 512.445312 334.222656 514.207031 344.691406 525.578125 354.511719 C 542.566406 369.171875 556.058594 367.515625 558.867188 366.957031 C 553.441406 359.367188 554.535156 354.699219 556.609375 344.375 C 558.683594 334.054688 556.410156 326.367188 549.34375 320.660156 C 545.105469 317.234375 541.644531 317.835938 539.613281 318.75 C 536.554688 310.15625 529.84375 302.757812 525.007812 297.976562 C 521.472656 294.917969 516.039062 291.507812 511.585938 289.453125 C 515.773438 289.308594 519.933594 288.542969 524.191406 286.875 C 524.328125 286.816406 524.449219 286.757812 524.578125 286.699219 C 528.527344 284.980469 530.941406 283.15625 533.308594 281.558594 C 535.320312 282.421875 537.261719 283.886719 539.105469 286.222656 C 539.105469 286.222656 539.101562 286.167969 539.09375 286.058594 C 539.050781 285.367188 538.824219 282.53125 538.054688 278.933594 C 538.753906 278.652344 539.496094 278.398438 540.316406 278.171875 C 542.859375 277.476562 544.359375 277.410156 546.011719 277.414062 C 535.707031 285.570312 542.03125 297.035156 553.035156 303 C 565.015625 309.492188 581.566406 300.78125 587.890625 316.648438 C 588.273438 314.964844 591.160156 301.316406 586.871094 291.542969 C 582.929688 282.566406 577.105469 271.285156 565.34375 268.144531 " fill-opacity="1" fill-rule="nonzero"/></g></svg>