<svg xmlns="http://www.w3.org/2000/svg" xmlns:xlink="http://www.w3.org/1999/xlink" width="1024" zoomAndPan="magnify" viewBox="0 0 768 767.999994" height="1024" preserveAspectRatio="xMidYMid meet" version="1.0"><defs><clipPath id="38bab0a242"><path d="M 230.398438 230.398438 L 537.898438 230.398438 L 537.898438 537.898438 L 230.398438 537.898438 Z M 230.398438 230.398438 " clip-rule="nonzero"/></clipPath></defs><path fill="#000d16" d="M 259.628906 506.246094 L 337.730469 453.742188 L 378.050781 476.5625 L 444.382812 414.0625 L 479.804688 444.144531 L 528.082031 406.882812 L 525.460938 403.484375 L 479.933594 438.625 L 444.234375 408.308594 L 377.410156 471.269531 L 337.539062 448.699219 L 257.238281 502.6875 L 259.628906 506.246094 " fill-opacity="1" fill-rule="nonzero"/><path fill="#ffffff" d="M 336.125 462.179688 C 330.265625 462.179688 325.5 457.410156 325.5 451.554688 C 325.5 445.695312 330.265625 440.929688 336.125 440.929688 C 341.980469 440.929688 346.746094 445.695312 346.746094 451.554688 C 346.746094 457.410156 341.980469 462.179688 336.125 462.179688 " fill-opacity="1" fill-rule="nonzero"/><path fill="#000d16" d="M 336.125 439.578125 C 329.519531 439.578125 324.148438 444.953125 324.148438 451.554688 C 324.148438 458.15625 329.519531 463.53125 336.125 463.53125 C 342.726562 463.53125 348.101562 458.15625 348.101562 451.554688 C 348.101562 444.953125 342.726562 439.578125 336.125 439.578125 Z M 336.125 442.285156 C 341.246094 442.285156 345.398438 446.429688 345.398438 451.554688 C 345.398438 456.675781 341.246094 460.828125 336.125 460.828125 C 331.003906 460.828125 326.847656 456.675781 326.847656 451.554688 C 326.847656 446.429688 331.003906 442.285156 336.125 442.285156 " fill-opacity="1" fill-rule="nonzero"/><path fill="#ffffff" d="M 378.996094 484.878906 C 373.140625 484.878906 368.375 480.109375 368.375 474.246094 C 368.375 468.394531 373.140625 463.628906 378.996094 463.628906 C 384.859375 463.628906 389.625 468.394531 389.625 474.246094 C 389.625 480.109375 384.859375 484.878906 378.996094 484.878906 " fill-opacity="1" fill-rule="nonzero"/><path fill="#000d16" d="M 378.996094 462.273438 C 372.390625 462.273438 367.019531 467.644531 367.019531 474.246094 C 367.019531 480.851562 372.390625 486.226562 378.996094 486.226562 C 385.601562 486.226562 390.972656 480.851562 390.972656 474.246094 C 390.972656 467.644531 385.601562 462.273438 378.996094 462.273438 Z M 378.996094 464.976562 C 384.117188 464.976562 388.269531 469.128906 388.269531 474.246094 C 388.269531 479.371094 384.117188 483.523438 378.996094 483.523438 C 373.875 483.523438 369.722656 479.371094 369.722656 474.246094 C 369.722656 469.128906 373.875 464.976562 378.996094 464.976562 " fill-opacity="1" fill-rule="nonzero"/><path fill="#ffffff" d="M 444.816406 421.8125 C 438.957031 421.8125 434.191406 417.046875 434.191406 411.1875 C 434.191406 405.328125 438.957031 400.5625 444.816406 400.5625 C 450.671875 400.5625 455.441406 405.328125 455.441406 411.1875 C 455.441406 417.046875 450.671875 421.8125 444.816406 421.8125 " fill-opacity="1" fill-rule="nonzero"/><path fill="#000d16" d="M 444.816406 399.210938 C 438.210938 399.210938 432.839844 404.585938 432.839844 411.1875 C 432.839844 417.792969 438.210938 423.164062 444.816406 423.164062 C 451.417969 423.164062 456.792969 417.792969 456.792969 411.1875 C 456.792969 404.585938 451.417969 399.210938 444.816406 399.210938 Z M 444.816406 401.914062 C 449.9375 401.914062 454.085938 406.066406 454.085938 411.1875 C 454.085938 416.308594 449.9375 420.464844 444.816406 420.464844 C 439.691406 420.464844 435.542969 416.308594 435.542969 411.1875 C 435.542969 406.066406 439.691406 401.914062 444.816406 401.914062 " fill-opacity="1" fill-rule="nonzero"/><path fill="#ffffff" d="M 481.125 449.878906 C 475.269531 449.878906 470.503906 445.113281 470.503906 439.257812 C 470.503906 433.394531 475.269531 428.628906 481.125 428.628906 C 486.988281 428.628906 491.753906 433.394531 491.753906 439.257812 C 491.753906 445.113281 486.988281 449.878906 481.125 449.878906 " fill-opacity="1" fill-rule="nonzero"/><path fill="#000d16" d="M 481.125 427.277344 C 474.523438 427.277344 469.15625 432.652344 469.15625 439.257812 C 469.15625 445.859375 474.523438 451.230469 481.125 451.230469 C 487.730469 451.230469 493.101562 445.859375 493.101562 439.257812 C 493.101562 432.652344 487.730469 427.277344 481.125 427.277344 Z M 481.125 429.976562 C 486.25 429.976562 490.402344 434.128906 490.402344 439.257812 C 490.402344 444.375 486.25 448.527344 481.125 448.527344 C 476.007812 448.527344 471.855469 444.375 471.855469 439.257812 C 471.855469 434.128906 476.007812 429.976562 481.125 429.976562 " fill-opacity="1" fill-rule="nonzero"/><g clip-path="url(#38bab0a242)"><path fill="#000d16" d="M 537.863281 533.609375 L 234.6875 533.609375 L 234.6875 230.4375 L 230.402344 230.4375 L 230.402344 537.898438 L 537.863281 537.898438 L 537.863281 533.609375 " fill-opacity="1" fill-rule="nonzero"/></g><path fill="#000d16" d="M 270.441406 535.753906 L 258.433594 535.753906 L 258.433594 525.210938 L 270.441406 525.210938 L 270.441406 535.753906 " fill-opacity="1" fill-rule="nonzero"/><path fill="#000d16" d="M 320.082031 535.753906 L 308.070312 535.753906 L 308.070312 525.210938 L 320.082031 525.210938 L 320.082031 535.753906 " fill-opacity="1" fill-rule="nonzero"/><path fill="#000d16" d="M 369.722656 535.753906 L 357.714844 535.753906 L 357.714844 525.210938 L 369.722656 525.210938 L 369.722656 535.753906 " fill-opacity="1" fill-rule="nonzero"/><path fill="#000d16" d="M 419.363281 535.753906 L 407.351562 535.753906 L 407.351562 525.210938 L 419.363281 525.210938 L 419.363281 535.753906 " fill-opacity="1" fill-rule="nonzero"/><path fill="#000d16" d="M 469.003906 535.753906 L 456.996094 535.753906 L 456.996094 525.210938 L 469.003906 525.210938 L 469.003906 535.753906 " fill-opacity="1" fill-rule="nonzero"/><path fill="#000d16" d="M 518.648438 535.753906 L 506.636719 535.753906 L 506.636719 525.210938 L 518.648438 525.210938 L 518.648438 535.753906 " fill-opacity="1" fill-rule="nonzero"/><path fill="#000d16" d="M 244.886719 504.46875 L 244.886719 516.476562 L 234.34375 516.476562 L 234.34375 504.46875 L 244.886719 504.46875 " fill-opacity="1" fill-rule="nonzero"/><path fill="#000d16" d="M 244.886719 454.820312 L 244.886719 466.832031 L 234.34375 466.832031 L 234.34375 454.820312 L 244.886719 454.820312 " fill-opacity="1" fill-rule="nonzero"/><path fill="#000d16" d="M 244.886719 405.1875 L 244.886719 417.191406 L 234.34375 417.191406 L 234.34375 405.1875 L 244.886719 405.1875 " fill-opacity="1" fill-rule="nonzero"/><path fill="#000d16" d="M 244.886719 355.539062 L 244.886719 367.550781 L 234.34375 367.550781 L 234.34375 355.539062 L 244.886719 355.539062 " fill-opacity="1" fill-rule="nonzero"/><path fill="#000d16" d="M 244.886719 305.898438 L 244.886719 317.910156 L 234.34375 317.910156 L 234.34375 305.898438 L 244.886719 305.898438 " fill-opacity="1" fill-rule="nonzero"/><path fill="#000d16" d="M 244.886719 256.265625 L 244.886719 268.265625 L 234.34375 268.265625 L 234.34375 256.265625 L 244.886719 256.265625 " fill-opacity="1" fill-rule="nonzero"/><path fill="#000d16" d="M 259.457031 425.367188 L 332.875 385.519531 L 382.894531 411.078125 L 436.105469 341.046875 L 494.675781 374.902344 L 496.828125 371.191406 L 434.980469 335.441406 L 381.652344 405.625 L 332.8125 380.671875 L 257.410156 421.597656 L 259.457031 425.367188 " fill-opacity="1" fill-rule="nonzero"/><path fill="#ffffff" d="M 332.847656 393.722656 C 326.988281 393.722656 322.222656 388.957031 322.222656 383.097656 C 322.222656 377.238281 326.988281 372.476562 332.847656 372.476562 C 338.703125 372.476562 343.46875 377.238281 343.46875 383.097656 C 343.46875 388.957031 338.703125 393.722656 332.847656 393.722656 " fill-opacity="1" fill-rule="nonzero"/><path fill="#000d16" d="M 332.847656 371.121094 C 326.242188 371.121094 320.871094 376.496094 320.871094 383.097656 C 320.871094 389.699219 326.242188 395.074219 332.847656 395.074219 C 339.449219 395.074219 344.824219 389.699219 344.824219 383.097656 C 344.824219 376.496094 339.449219 371.121094 332.847656 371.121094 Z M 332.847656 373.828125 C 337.964844 373.828125 342.117188 377.976562 342.117188 383.097656 C 342.117188 388.21875 337.964844 392.371094 332.847656 392.371094 C 327.722656 392.371094 323.570312 388.21875 323.570312 383.097656 C 323.570312 377.976562 327.722656 373.828125 332.847656 373.828125 " fill-opacity="1" fill-rule="nonzero"/><path fill="#ffffff" d="M 383.328125 418.542969 C 377.46875 418.542969 372.703125 413.777344 372.703125 407.914062 C 372.703125 402.058594 377.46875 397.296875 383.328125 397.296875 C 389.183594 397.296875 393.949219 402.058594 393.949219 407.914062 C 393.949219 413.777344 389.183594 418.542969 383.328125 418.542969 " fill-opacity="1" fill-rule="nonzero"/><path fill="#000d16" d="M 383.328125 395.945312 C 376.726562 395.945312 371.351562 401.3125 371.351562 407.914062 C 371.351562 414.519531 376.726562 419.894531 383.328125 419.894531 C 389.929688 419.894531 395.300781 414.519531 395.300781 407.914062 C 395.300781 401.3125 389.929688 395.945312 383.328125 395.945312 Z M 383.328125 398.644531 C 388.449219 398.644531 392.601562 402.796875 392.601562 407.914062 C 392.601562 413.035156 388.449219 417.191406 383.328125 417.191406 C 378.207031 417.191406 374.054688 413.035156 374.054688 407.914062 C 374.054688 402.796875 378.207031 398.644531 383.328125 398.644531 " fill-opacity="1" fill-rule="nonzero"/><path fill="#ffffff" d="M 435.542969 348.867188 C 429.683594 348.867188 424.914062 344.105469 424.914062 338.246094 C 424.914062 332.390625 429.683594 327.621094 435.542969 327.621094 C 441.398438 327.621094 446.164062 332.390625 446.164062 338.246094 C 446.164062 344.105469 441.398438 348.867188 435.542969 348.867188 " fill-opacity="1" fill-rule="nonzero"/><path fill="#000d16" d="M 435.542969 326.269531 C 428.941406 326.269531 423.566406 331.644531 423.566406 338.246094 C 423.566406 344.847656 428.941406 350.21875 435.542969 350.21875 C 442.148438 350.21875 447.519531 344.847656 447.519531 338.246094 C 447.519531 331.644531 442.148438 326.269531 435.542969 326.269531 Z M 435.542969 328.976562 C 440.660156 328.976562 444.816406 333.125 444.816406 338.246094 C 444.816406 343.367188 440.660156 347.515625 435.542969 347.515625 C 430.421875 347.515625 426.265625 343.367188 426.265625 338.246094 C 426.265625 333.125 430.421875 328.976562 435.542969 328.976562 " fill-opacity="1" fill-rule="nonzero"/></svg>