<svg xmlns="http://www.w3.org/2000/svg" xmlns:xlink="http://www.w3.org/1999/xlink" width="500" zoomAndPan="magnify" viewBox="0 0 375 374.999991" height="500" preserveAspectRatio="xMidYMid meet" version="1.0"><defs><g/></defs><g fill="#000000" fill-opacity="0.4"><g transform="translate(58.828305, 200.2148)"><g><path d="M 21.378906 0.578125 C 33.917969 0.578125 42.871094 -8.898438 42.871094 -21.378906 C 42.871094 -32.53125 35.417969 -41.023438 23.804688 -41.023438 C 11.441406 -41.023438 2.3125 -31.027344 2.3125 -18.664062 C 2.3125 -7.394531 10.402344 0.578125 21.378906 0.578125 Z M 24.382812 -3.988281 C 15.660156 -3.988281 10.285156 -13.925781 10.285156 -23.921875 C 10.285156 -30.679688 13.867188 -36.921875 21.089844 -36.921875 C 29.640625 -36.921875 34.898438 -26.753906 34.898438 -16.988281 C 34.898438 -9.878906 31.722656 -3.988281 24.382812 -3.988281 Z M 24.382812 -3.988281 "/></g></g></g><g fill="#000000" fill-opacity="0.4"><g transform="translate(104.12261, 200.2148)"><g><path d="M 31.316406 -26.578125 C 31.316406 -27.792969 30.914062 -28.3125 29.988281 -28.3125 C 29.0625 -28.3125 24.902344 -26.925781 22.476562 -25.769531 C 21.089844 -25.132812 20.683594 -24.730469 20.683594 -23.980469 C 20.683594 -22.246094 23.457031 -22.648438 23.457031 -18.664062 L 23.457031 -12.597656 C 23.457031 -7.683594 20.339844 -4.566406 17.21875 -4.507812 C 13.75 -4.449219 12.597656 -7.164062 12.597656 -11.613281 L 12.597656 -18.664062 L 12.652344 -26.578125 C 12.652344 -27.792969 12.25 -28.3125 11.265625 -28.3125 C 10.34375 -28.3125 6.242188 -26.925781 3.8125 -25.769531 C 2.425781 -25.132812 2.023438 -24.730469 2.023438 -23.980469 C 2.023438 -22.246094 4.738281 -22.648438 4.738281 -18.664062 L 4.796875 -11.210938 C 4.796875 -3.8125 8.261719 0.460938 14.675781 0.460938 C 17.679688 0.460938 21.320312 -1.214844 23.691406 -4.390625 L 23.746094 -2.945312 C 23.863281 -0.519531 24.554688 0.460938 26.175781 0.460938 C 27.792969 0.460938 31.027344 -0.695312 32.761719 -1.617188 C 34.03125 -2.3125 34.667969 -2.890625 34.667969 -3.699219 C 34.667969 -5.429688 31.257812 -4.507812 31.257812 -8.726562 L 31.257812 -18.664062 Z M 31.316406 -26.578125 "/></g></g></g><g fill="#000000" fill-opacity="0.4"><g transform="translate(140.693141, 200.2148)"><g><path d="M 19.875 -28.3125 C 17.101562 -28.3125 14.039062 -26.636719 11.902344 -23.113281 L 11.902344 -26.519531 C 11.902344 -27.675781 11.5 -28.253906 10.515625 -28.253906 C 9.589844 -28.195312 6.007812 -27.15625 3.871094 -26.117188 C 2.484375 -25.480469 2.023438 -25.078125 2.023438 -24.152344 C 2.023438 -23.34375 2.542969 -22.9375 3.121094 -22.535156 C 4.277344 -21.667969 4.910156 -20.628906 4.910156 -19.007812 L 4.910156 -8.03125 C 4.910156 -2.65625 2.023438 -3.988281 2.023438 -1.503906 C 2.023438 -0.347656 3.0625 0 4.679688 0 L 12.941406 0 C 14.5625 0 15.484375 -0.289062 15.484375 -1.445312 C 15.484375 -3.988281 12.710938 -2.65625 12.710938 -8.03125 L 12.710938 -15.832031 C 12.710938 -20.050781 14.617188 -22.476562 16.699219 -22.476562 C 19.472656 -22.476562 19.414062 -19.472656 22.128906 -19.472656 C 23.863281 -19.472656 25.019531 -21.03125 25.019531 -23.34375 C 25.019531 -26.175781 23.285156 -28.3125 19.875 -28.3125 Z M 19.875 -28.3125 "/></g></g></g><g fill="#000000" fill-opacity="0.4"><g transform="translate(167.499975, 200.2148)"><g/></g></g><g fill="#000000" fill-opacity="0.4"><g transform="translate(179.05465, 200.2148)"><g><path d="M 22.824219 -34.03125 C 22.824219 -35.765625 23.632812 -36.632812 25.367188 -36.632812 C 29.179688 -36.632812 30.335938 -34.609375 32.355469 -30.625 C 33.109375 -29.179688 33.6875 -28.484375 34.550781 -28.484375 C 35.765625 -28.484375 35.996094 -29.527344 35.9375 -31.027344 C 35.882812 -34.207031 35.535156 -36.402344 35.074219 -38.078125 C 34.667969 -39.753906 33.800781 -40.445312 30.277344 -40.445312 L 7.222656 -40.445312 C 3.699219 -40.445312 2.832031 -39.753906 2.367188 -38.019531 C 1.90625 -36.402344 1.617188 -34.207031 1.503906 -31.027344 C 1.445312 -29.46875 1.734375 -28.484375 2.945312 -28.484375 C 3.8125 -28.484375 4.390625 -29.179688 5.085938 -30.625 C 7.164062 -34.550781 8.261719 -36.574219 12.074219 -36.574219 C 13.925781 -36.574219 14.675781 -35.765625 14.675781 -34.03125 L 14.675781 -9.648438 C 14.675781 -2.773438 10.863281 -4.390625 10.863281 -1.617188 C 10.863281 -0.40625 11.789062 0 14.097656 0 L 23.285156 0 C 25.710938 0 26.519531 -0.40625 26.519531 -1.617188 C 26.519531 -4.390625 22.824219 -2.773438 22.824219 -9.648438 Z M 22.824219 -34.03125 "/></g></g></g><g fill="#000000" fill-opacity="0.4"><g transform="translate(216.491785, 200.2148)"><g><path d="M 29.0625 -15.371094 C 29.640625 -23.226562 24.441406 -28.3125 16.871094 -28.3125 C 8.78125 -28.3125 1.90625 -21.957031 1.90625 -13.40625 C 1.90625 -5.199219 7.453125 0.578125 15.890625 0.578125 C 23.402344 0.578125 27.5625 -3.640625 28.714844 -6.875 C 29.292969 -8.550781 28.082031 -9.417969 26.867188 -8.320312 C 24.84375 -6.527344 22.535156 -5.027344 19.007812 -5.027344 C 13.925781 -5.027344 10.226562 -8.4375 9.589844 -13.636719 L 27.445312 -13.867188 C 28.371094 -13.867188 29.003906 -14.386719 29.0625 -15.371094 Z M 11.035156 -17.046875 C 9.707031 -17.046875 9.535156 -17.160156 9.535156 -18.257812 C 9.589844 -21.03125 11.84375 -24.671875 15.773438 -24.671875 C 19.414062 -24.671875 21.726562 -22.015625 21.898438 -18.664062 C 21.898438 -17.277344 21.78125 -17.101562 20.570312 -17.101562 Z M 11.035156 -17.046875 "/></g></g></g><g fill="#000000" fill-opacity="0.4"><g transform="translate(247.111664, 200.2148)"><g><path d="M 27.386719 -17.101562 C 27.386719 -23.746094 23.691406 -28.3125 15.949219 -28.3125 C 10.804688 -28.3125 6.125 -25.367188 4.679688 -22.9375 C 3.753906 -21.496094 5.027344 -20.628906 6.125 -21.320312 C 8.203125 -22.476562 10.226562 -23.285156 12.710938 -23.285156 C 16.929688 -23.285156 19.296875 -21.496094 19.820312 -16.640625 C 17.507812 -17.390625 15.660156 -17.507812 13.867188 -17.507812 C 6.183594 -17.507812 1.039062 -13.636719 1.039062 -8.148438 C 1.039062 -2.65625 5.664062 0.519531 10.921875 0.519531 C 14.328125 0.519531 17.796875 -0.695312 20.339844 -3.640625 C 21.089844 -0.289062 23.167969 0.347656 25.25 0.347656 C 27.90625 0.347656 30.96875 -1.617188 30.96875 -3.582031 C 30.96875 -5.316406 27.386719 -3.121094 27.386719 -7.800781 Z M 13.75 -3.640625 C 10.402344 -3.640625 8.148438 -5.664062 8.148438 -8.957031 C 8.089844 -12.421875 10.746094 -14.5625 14.675781 -14.5625 C 17.566406 -14.5625 19.820312 -13.636719 19.875 -12.191406 C 19.933594 -10.285156 19.933594 -9.535156 19.933594 -8.261719 C 19.875 -5.953125 16.640625 -3.640625 13.75 -3.640625 Z M 13.75 -3.640625 "/></g></g></g><g fill="#000000" fill-opacity="0.4"><g transform="translate(279.291418, 200.2148)"><g><path d="M 50.789062 -16.46875 C 50.789062 -23.863281 47.378906 -28.3125 40.386719 -28.3125 C 36.75 -28.3125 32.933594 -26.636719 30.507812 -22.882812 C 29.0625 -26.347656 26.117188 -28.3125 21.496094 -28.3125 C 17.738281 -28.3125 14.15625 -26.464844 11.902344 -22.765625 L 11.902344 -26.519531 C 11.902344 -27.675781 11.5 -28.253906 10.515625 -28.253906 C 9.589844 -28.195312 6.007812 -27.15625 3.871094 -26.117188 C 2.484375 -25.480469 2.023438 -25.078125 2.023438 -24.152344 C 2.023438 -23.34375 2.542969 -22.9375 3.121094 -22.535156 C 4.277344 -21.667969 4.910156 -20.628906 4.910156 -19.007812 L 4.910156 -8.03125 C 4.910156 -2.65625 2.023438 -3.988281 2.023438 -1.503906 C 2.023438 -0.347656 3.0625 0 4.679688 0 L 12.941406 0 C 14.5625 0 15.484375 -0.289062 15.484375 -1.445312 C 15.484375 -3.988281 12.710938 -2.65625 12.710938 -8.03125 L 12.710938 -15.425781 C 12.710938 -20.511719 15.773438 -23.402344 18.894531 -23.457031 C 23.054688 -23.515625 23.804688 -19.875 23.804688 -15.601562 L 23.804688 -8.03125 C 23.804688 -2.65625 20.972656 -3.988281 20.972656 -1.503906 C 20.972656 -0.347656 21.957031 0 23.632812 0 L 31.894531 0 C 33.453125 0 34.4375 -0.289062 34.4375 -1.445312 C 34.4375 -3.988281 31.605469 -2.65625 31.605469 -8.03125 L 31.605469 -15.425781 C 31.605469 -20.683594 34.320312 -23.457031 37.558594 -23.457031 C 41.660156 -23.515625 43.046875 -19.992188 43.046875 -15.601562 L 43.046875 -8.03125 C 43.046875 -2.65625 40.214844 -3.988281 40.214844 -1.503906 C 40.214844 -0.347656 41.195312 0 42.816406 0 L 51.136719 0 C 52.695312 0 53.621094 -0.289062 53.621094 -1.445312 C 53.621094 -3.988281 50.847656 -2.65625 50.847656 -8.03125 Z M 50.789062 -16.46875 "/></g></g></g><g fill="#000000" fill-opacity="1"><g transform="translate(56.274504, 197.660992)"><g><path d="M 21.378906 0.578125 C 33.917969 0.578125 42.871094 -8.898438 42.871094 -21.378906 C 42.871094 -32.53125 35.417969 -41.023438 23.804688 -41.023438 C 11.441406 -41.023438 2.3125 -31.027344 2.3125 -18.664062 C 2.3125 -7.394531 10.402344 0.578125 21.378906 0.578125 Z M 24.382812 -3.988281 C 15.660156 -3.988281 10.285156 -13.925781 10.285156 -23.921875 C 10.285156 -30.679688 13.867188 -36.921875 21.089844 -36.921875 C 29.640625 -36.921875 34.898438 -26.753906 34.898438 -16.988281 C 34.898438 -9.878906 31.722656 -3.988281 24.382812 -3.988281 Z M 24.382812 -3.988281 "/></g></g></g><g fill="#000000" fill-opacity="1"><g transform="translate(101.568808, 197.660992)"><g><path d="M 31.316406 -26.578125 C 31.316406 -27.792969 30.914062 -28.3125 29.988281 -28.3125 C 29.0625 -28.3125 24.902344 -26.925781 22.476562 -25.769531 C 21.089844 -25.132812 20.683594 -24.730469 20.683594 -23.980469 C 20.683594 -22.246094 23.457031 -22.648438 23.457031 -18.664062 L 23.457031 -12.597656 C 23.457031 -7.683594 20.339844 -4.566406 17.21875 -4.507812 C 13.75 -4.449219 12.597656 -7.164062 12.597656 -11.613281 L 12.597656 -18.664062 L 12.652344 -26.578125 C 12.652344 -27.792969 12.25 -28.3125 11.265625 -28.3125 C 10.34375 -28.3125 6.242188 -26.925781 3.8125 -25.769531 C 2.425781 -25.132812 2.023438 -24.730469 2.023438 -23.980469 C 2.023438 -22.246094 4.738281 -22.648438 4.738281 -18.664062 L 4.796875 -11.210938 C 4.796875 -3.8125 8.261719 0.460938 14.675781 0.460938 C 17.679688 0.460938 21.320312 -1.214844 23.691406 -4.390625 L 23.746094 -2.945312 C 23.863281 -0.519531 24.554688 0.460938 26.175781 0.460938 C 27.792969 0.460938 31.027344 -0.695312 32.761719 -1.617188 C 34.03125 -2.3125 34.667969 -2.890625 34.667969 -3.699219 C 34.667969 -5.429688 31.257812 -4.507812 31.257812 -8.726562 L 31.257812 -18.664062 Z M 31.316406 -26.578125 "/></g></g></g><g fill="#000000" fill-opacity="1"><g transform="translate(138.13934, 197.660992)"><g><path d="M 19.875 -28.3125 C 17.101562 -28.3125 14.039062 -26.636719 11.902344 -23.113281 L 11.902344 -26.519531 C 11.902344 -27.675781 11.5 -28.253906 10.515625 -28.253906 C 9.589844 -28.195312 6.007812 -27.15625 3.871094 -26.117188 C 2.484375 -25.480469 2.023438 -25.078125 2.023438 -24.152344 C 2.023438 -23.34375 2.542969 -22.9375 3.121094 -22.535156 C 4.277344 -21.667969 4.910156 -20.628906 4.910156 -19.007812 L 4.910156 -8.03125 C 4.910156 -2.65625 2.023438 -3.988281 2.023438 -1.503906 C 2.023438 -0.347656 3.0625 0 4.679688 0 L 12.941406 0 C 14.5625 0 15.484375 -0.289062 15.484375 -1.445312 C 15.484375 -3.988281 12.710938 -2.65625 12.710938 -8.03125 L 12.710938 -15.832031 C 12.710938 -20.050781 14.617188 -22.476562 16.699219 -22.476562 C 19.472656 -22.476562 19.414062 -19.472656 22.128906 -19.472656 C 23.863281 -19.472656 25.019531 -21.03125 25.019531 -23.34375 C 25.019531 -26.175781 23.285156 -28.3125 19.875 -28.3125 Z M 19.875 -28.3125 "/></g></g></g><g fill="#000000" fill-opacity="1"><g transform="translate(164.946174, 197.660992)"><g/></g></g><g fill="#000000" fill-opacity="1"><g transform="translate(176.500849, 197.660992)"><g><path d="M 22.824219 -34.03125 C 22.824219 -35.765625 23.632812 -36.632812 25.367188 -36.632812 C 29.179688 -36.632812 30.335938 -34.609375 32.355469 -30.625 C 33.109375 -29.179688 33.6875 -28.484375 34.550781 -28.484375 C 35.765625 -28.484375 35.996094 -29.527344 35.9375 -31.027344 C 35.882812 -34.207031 35.535156 -36.402344 35.074219 -38.078125 C 34.667969 -39.753906 33.800781 -40.445312 30.277344 -40.445312 L 7.222656 -40.445312 C 3.699219 -40.445312 2.832031 -39.753906 2.367188 -38.019531 C 1.90625 -36.402344 1.617188 -34.207031 1.503906 -31.027344 C 1.445312 -29.46875 1.734375 -28.484375 2.945312 -28.484375 C 3.8125 -28.484375 4.390625 -29.179688 5.085938 -30.625 C 7.164062 -34.550781 8.261719 -36.574219 12.074219 -36.574219 C 13.925781 -36.574219 14.675781 -35.765625 14.675781 -34.03125 L 14.675781 -9.648438 C 14.675781 -2.773438 10.863281 -4.390625 10.863281 -1.617188 C 10.863281 -0.40625 11.789062 0 14.097656 0 L 23.285156 0 C 25.710938 0 26.519531 -0.40625 26.519531 -1.617188 C 26.519531 -4.390625 22.824219 -2.773438 22.824219 -9.648438 Z M 22.824219 -34.03125 "/></g></g></g><g fill="#000000" fill-opacity="1"><g transform="translate(213.937984, 197.660992)"><g><path d="M 29.0625 -15.371094 C 29.640625 -23.226562 24.441406 -28.3125 16.871094 -28.3125 C 8.78125 -28.3125 1.90625 -21.957031 1.90625 -13.40625 C 1.90625 -5.199219 7.453125 0.578125 15.890625 0.578125 C 23.402344 0.578125 27.5625 -3.640625 28.714844 -6.875 C 29.292969 -8.550781 28.082031 -9.417969 26.867188 -8.320312 C 24.84375 -6.527344 22.535156 -5.027344 19.007812 -5.027344 C 13.925781 -5.027344 10.226562 -8.4375 9.589844 -13.636719 L 27.445312 -13.867188 C 28.371094 -13.867188 29.003906 -14.386719 29.0625 -15.371094 Z M 11.035156 -17.046875 C 9.707031 -17.046875 9.535156 -17.160156 9.535156 -18.257812 C 9.589844 -21.03125 11.84375 -24.671875 15.773438 -24.671875 C 19.414062 -24.671875 21.726562 -22.015625 21.898438 -18.664062 C 21.898438 -17.277344 21.78125 -17.101562 20.570312 -17.101562 Z M 11.035156 -17.046875 "/></g></g></g><g fill="#000000" fill-opacity="1"><g transform="translate(244.557863, 197.660992)"><g><path d="M 27.386719 -17.101562 C 27.386719 -23.746094 23.691406 -28.3125 15.949219 -28.3125 C 10.804688 -28.3125 6.125 -25.367188 4.679688 -22.9375 C 3.753906 -21.496094 5.027344 -20.628906 6.125 -21.320312 C 8.203125 -22.476562 10.226562 -23.285156 12.710938 -23.285156 C 16.929688 -23.285156 19.296875 -21.496094 19.820312 -16.640625 C 17.507812 -17.390625 15.660156 -17.507812 13.867188 -17.507812 C 6.183594 -17.507812 1.039062 -13.636719 1.039062 -8.148438 C 1.039062 -2.65625 5.664062 0.519531 10.921875 0.519531 C 14.328125 0.519531 17.796875 -0.695312 20.339844 -3.640625 C 21.089844 -0.289062 23.167969 0.347656 25.25 0.347656 C 27.90625 0.347656 30.96875 -1.617188 30.96875 -3.582031 C 30.96875 -5.316406 27.386719 -3.121094 27.386719 -7.800781 Z M 13.75 -3.640625 C 10.402344 -3.640625 8.148438 -5.664062 8.148438 -8.957031 C 8.089844 -12.421875 10.746094 -14.5625 14.675781 -14.5625 C 17.566406 -14.5625 19.820312 -13.636719 19.875 -12.191406 C 19.933594 -10.285156 19.933594 -9.535156 19.933594 -8.261719 C 19.875 -5.953125 16.640625 -3.640625 13.75 -3.640625 Z M 13.75 -3.640625 "/></g></g></g><g fill="#000000" fill-opacity="1"><g transform="translate(276.737617, 197.660992)"><g><path d="M 50.789062 -16.46875 C 50.789062 -23.863281 47.378906 -28.3125 40.386719 -28.3125 C 36.75 -28.3125 32.933594 -26.636719 30.507812 -22.882812 C 29.0625 -26.347656 26.117188 -28.3125 21.496094 -28.3125 C 17.738281 -28.3125 14.15625 -26.464844 11.902344 -22.765625 L 11.902344 -26.519531 C 11.902344 -27.675781 11.5 -28.253906 10.515625 -28.253906 C 9.589844 -28.195312 6.007812 -27.15625 3.871094 -26.117188 C 2.484375 -25.480469 2.023438 -25.078125 2.023438 -24.152344 C 2.023438 -23.34375 2.542969 -22.9375 3.121094 -22.535156 C 4.277344 -21.667969 4.910156 -20.628906 4.910156 -19.007812 L 4.910156 -8.03125 C 4.910156 -2.65625 2.023438 -3.988281 2.023438 -1.503906 C 2.023438 -0.347656 3.0625 0 4.679688 0 L 12.941406 0 C 14.5625 0 15.484375 -0.289062 15.484375 -1.445312 C 15.484375 -3.988281 12.710938 -2.65625 12.710938 -8.03125 L 12.710938 -15.425781 C 12.710938 -20.511719 15.773438 -23.402344 18.894531 -23.457031 C 23.054688 -23.515625 23.804688 -19.875 23.804688 -15.601562 L 23.804688 -8.03125 C 23.804688 -2.65625 20.972656 -3.988281 20.972656 -1.503906 C 20.972656 -0.347656 21.957031 0 23.632812 0 L 31.894531 0 C 33.453125 0 34.4375 -0.289062 34.4375 -1.445312 C 34.4375 -3.988281 31.605469 -2.65625 31.605469 -8.03125 L 31.605469 -15.425781 C 31.605469 -20.683594 34.320312 -23.457031 37.558594 -23.457031 C 41.660156 -23.515625 43.046875 -19.992188 43.046875 -15.601562 L 43.046875 -8.03125 C 43.046875 -2.65625 40.214844 -3.988281 40.214844 -1.503906 C 40.214844 -0.347656 41.195312 0 42.816406 0 L 51.136719 0 C 52.695312 0 53.621094 -0.289062 53.621094 -1.445312 C 53.621094 -3.988281 50.847656 -2.65625 50.847656 -8.03125 Z M 50.789062 -16.46875 "/></g></g></g></svg>